<svg width="16" height="16" viewBox="0 0 16 16" fill="none" xmlns="http://www.w3.org/2000/svg">
<path d="M14 4.74923C14 4.62615 13.9508 4.50923 13.8646 4.42308L11.5754 2.13385C11.3969 1.95538 11.1015 1.95538 10.9231 2.13385C10.7446 2.31231 10.7446 2.60769 10.9231 2.78615L12.4308 4.29385H2.46154C2.20923 4.29385 2 4.50308 2 4.75538C2 5.00769 2.20923 5.21077 2.46154 5.21077H12.4246L10.9231 6.71231C10.7446 6.89076 10.7446 7.18614 10.9231 7.3646C11.0154 7.45691 11.1323 7.49999 11.2492 7.49999C11.3662 7.49999 11.4831 7.45691 11.5754 7.3646L13.8585 5.08154C13.9015 5.03846 13.9385 4.98308 13.9631 4.92154C13.9631 4.91538 13.9631 4.90923 13.9692 4.90308C13.9877 4.85385 14 4.80462 14 4.74923Z" fill="black"/>
<path d="M13.5385 10.773H3.57538L5.07692 9.27151C5.25538 9.09304 5.25538 8.79766 5.07692 8.6192C4.89846 8.44074 4.60308 8.44074 4.42462 8.6192L2.14154 10.9023C2.09846 10.9454 2.06154 11.0007 2.03692 11.0623C2.03692 11.0684 2.03692 11.0746 2.03077 11.0807C2.01231 11.13 2 11.1854 2 11.2407C2 11.3638 2.04923 11.4807 2.13538 11.5669L4.42462 13.8561C4.51692 13.9484 4.63385 13.9915 4.75077 13.9915C4.86769 13.9915 4.98462 13.9484 5.07692 13.8561C5.25538 13.6777 5.25538 13.3823 5.07692 13.2038L3.56923 11.6961H13.5385C13.7908 11.6961 14 11.4869 14 11.2346C14 10.9823 13.7908 10.773 13.5385 10.773Z" fill="black"/>
</svg>
