<svg width="24" height="24" viewBox="0 0 24 24" fill="none" xmlns="http://www.w3.org/2000/svg">
<path d="M3.41833 6H5.41833H21.4183" stroke="#A9A9A9" stroke-linecap="round" stroke-linejoin="round"/>
<path d="M8.41833 6V4C8.41833 3.46957 8.62905 2.96086 9.00412 2.58579C9.37919 2.21071 9.8879 2 10.4183 2H14.4183C14.9488 2 15.4575 2.21071 15.8325 2.58579C16.2076 2.96086 16.4183 3.46957 16.4183 4V6M19.4183 6V20C19.4183 20.5304 19.2076 21.0391 18.8325 21.4142C18.4575 21.7893 17.9488 22 17.4183 22H7.41833C6.8879 22 6.37919 21.7893 6.00412 21.4142C5.62905 21.0391 5.41833 20.5304 5.41833 20V6H19.4183Z" stroke="#A9A9A9" stroke-linecap="round" stroke-linejoin="round"/>
<path d="M10.4183 11V17" stroke="#A9A9A9" stroke-linecap="round" stroke-linejoin="round"/>
<path d="M14.4183 11V17" stroke="#A9A9A9" stroke-linecap="round" stroke-linejoin="round"/>
</svg>
