<svg width="18" height="18" viewBox="0 0 18 18" fill="none" xmlns="http://www.w3.org/2000/svg">
<path d="M0.565685 16.7164C0.253266 16.404 0.253266 15.8974 0.565685 15.585L6.585 9.56569C6.89742 9.25327 6.89742 8.74673 6.585 8.43431L0.565685 2.415C0.253265 2.10258 0.253266 1.59605 0.565686 1.28363L1.28363 0.565686C1.59605 0.253266 2.10258 0.253266 2.415 0.565685L8.43432 6.585C8.74673 6.89742 9.25327 6.89742 9.56569 6.585L15.5674 0.583298C15.8798 0.270879 16.3863 0.270878 16.6988 0.583298L17.4167 1.30124C17.7291 1.61366 17.7291 2.12019 17.4167 2.43261L11.415 8.43431C11.1026 8.74673 11.1026 9.25327 11.415 9.56569L17.4343 15.585C17.7467 15.8974 17.7467 16.4039 17.4343 16.7164L16.7164 17.4343C16.404 17.7467 15.8974 17.7467 15.585 17.4343L9.56569 11.415C9.25327 11.1026 8.74673 11.1026 8.43431 11.415L2.415 17.4343C2.10258 17.7467 1.59605 17.7467 1.28363 17.4343L0.565685 16.7164Z" fill="black" stroke="white" stroke-width="0.2"/>
</svg>
