<svg width="24" height="25" viewBox="0 0 24 25" fill="none" xmlns="http://www.w3.org/2000/svg">
<path d="M3.41846 6.5H5.41846H21.4185" stroke="#A9A9A9" stroke-linecap="round" stroke-linejoin="round"/>
<path d="M8.41846 6.5V4.5C8.41846 3.96957 8.62917 3.46086 9.00424 3.08579C9.37932 2.71071 9.88802 2.5 10.4185 2.5H14.4185C14.9489 2.5 15.4576 2.71071 15.8327 3.08579C16.2077 3.46086 16.4185 3.96957 16.4185 4.5V6.5M19.4185 6.5V20.5C19.4185 21.0304 19.2077 21.5391 18.8327 21.9142C18.4576 22.2893 17.9489 22.5 17.4185 22.5H7.41846C6.88802 22.5 6.37932 22.2893 6.00424 21.9142C5.62917 21.5391 5.41846 21.0304 5.41846 20.5V6.5H19.4185Z" stroke="#A9A9A9" stroke-linecap="round" stroke-linejoin="round"/>
<path d="M10.4185 11.5V17.5" stroke="#A9A9A9" stroke-linecap="round" stroke-linejoin="round"/>
<path d="M14.4185 11.5V17.5" stroke="#A9A9A9" stroke-linecap="round" stroke-linejoin="round"/>
</svg>
