<svg width="109" height="28" viewBox="0 0 109 28" fill="none" xmlns="http://www.w3.org/2000/svg">
<path d="M0.0389042 12.8179C-0.0509411 12.6682 0.0389042 12.4885 0.0688526 12.3387C0.128749 11.7697 0.128749 11.1408 0.278492 10.5718C0.338389 10.3023 0.667822 9.97282 0.907409 9.85302C0.967306 9.82308 1.05715 9.79313 1.11705 9.79313C1.62617 9.64339 2.10535 9.37385 2.58452 9.13426C3.00379 8.92462 3.42307 8.68504 3.8124 8.38555C4.62101 7.78658 5.27987 7.03787 5.81895 6.19932C8.90363 1.49742 13.4258 -0.479179 19.0562 0.149737C24.6865 0.868501 28.4899 4.04303 30.6462 9.4038C30.736 9.58349 30.736 9.67333 30.8259 9.85302C30.9157 10.0327 30.9157 10.1226 31.0055 10.3023C31.0055 10.3921 31.0954 10.3921 31.0954 10.3921H36.9054C37.1749 9.85303 37.4445 9.4038 37.714 8.86473C38.3429 7.69674 38.9718 6.40896 39.8104 5.42066C45.7102 -2.36593 57.6596 -1.55732 62.5712 6.76834C63.2001 7.75663 63.829 8.50535 64.9371 8.86473C65.1168 8.95457 65.2067 8.95457 65.3863 9.04442C65.566 9.13426 65.6559 9.13426 65.8356 9.22411C67.932 10.1226 68.0218 10.3023 67.8421 12.758C67.5726 12.8479 67.2132 12.9377 66.9437 13.0276C65.596 13.4768 64.6676 14.1057 64.398 15.9326C63.4996 21.6527 60.2352 25.546 54.6049 27.2531C51.3106 28.2713 47.8965 27.9419 44.7818 26.5942C44.0631 26.2947 43.7336 25.7257 44.0331 24.947C44.123 24.6775 44.2727 24.4379 44.5123 24.2582C45.1712 23.809 46.399 24.7673 47.028 25.0069C47.9863 25.3364 49.0046 25.546 50.0228 25.576C52.0892 25.6957 54.1557 25.2166 55.9825 24.3181C61.4332 21.5928 63.4996 15.3336 61.9722 10.5418C60.2352 5.00138 55.0841 1.55731 49.2741 2.21618C44.7519 2.75525 40.4692 6.37901 39.3911 10.8413C39.2114 11.4702 39.481 11.7398 39.8403 12.0093C42.6555 14.3752 43.7336 18.0888 42.6555 21.5329C42.3859 22.4314 41.9367 22.8806 41.0383 23.0603C40.2297 23.1501 39.8703 22.7009 39.4211 22.1618L39.3312 22.072C37.5044 19.5264 36.6059 16.7112 36.6957 13.5367C36.7257 12.219 35.1384 12.189 34.1501 12.189C31.7842 12.189 31.6045 12.3687 31.5147 14.6448C31.4248 17.6396 30.3467 20.2751 28.43 22.6111C28.1605 22.9704 27.4417 23.4197 26.9925 23.3298C26.4534 23.24 25.9143 22.6111 25.6448 22.1618C24.2971 18.6279 25.1956 14.6448 28.1006 12.189C28.8193 11.5601 28.9092 11.1109 28.6397 10.2723C26.7529 5.75009 23.4885 2.96489 18.577 2.30603C13.6055 1.67711 9.14322 4.13287 6.89709 8.4754C4.65096 12.8179 4.98039 17.2802 7.97523 21.0837C11.3295 25.3364 17.3191 27.0734 22.4703 24.3481C22.5601 24.3481 22.65 24.2582 22.65 24.2582C23.3687 23.8988 24.0875 23.5395 24.6565 24.4379C25.1057 25.1567 24.6565 25.8754 23.3987 26.4445C18.5171 28.8104 13.6954 28.451 9.26302 25.546C5.90879 23.3598 3.8124 20.1852 3.36317 16.1721C3.30328 15.7229 3.21343 15.0042 2.67437 14.2854C2.34493 13.8661 1.92566 13.5367 1.44648 13.327C1.147 13.1773 0.817564 13.0875 0.518079 13.0276C0.30844 12.9976 0.128749 12.9677 0.0389042 12.8179ZM28.999 14.4651C27.6514 16.2021 27.0823 17.8193 27.3818 19.9157C27.7412 19.2868 28.1904 18.4782 28.46 17.3701C28.8193 16.262 28.9092 15.2737 28.999 14.4651ZM38.9718 14.4651C38.7921 16.2021 39.5109 18.6279 40.589 19.9157C40.7987 17.8193 40.3495 16.0823 38.9718 14.4651Z" fill="url(#paint0_linear_1256_2189)"/>
<path d="M17.2294 2.12598C20.4039 2.15592 22.7698 3.44371 24.0277 4.31221C24.8063 4.85128 27.5616 6.82788 28.6098 10.4516C29.059 11.979 29.0291 13.2368 28.9991 13.8957C28.9692 14.6444 28.9093 17.0103 27.6215 19.4362C25.555 23.3594 21.1526 25.7553 17.2294 25.6954C15.4624 25.6654 13.8752 25.1264 13.5757 25.0365C13.2762 24.9167 11.4793 24.2878 9.83212 22.9701C7.82557 21.3529 5.33979 18.0286 5.24995 13.8957C5.1601 9.64303 7.61593 6.07917 10.7306 4.01273C13.366 2.30567 16.0314 2.12598 17.2294 2.12598Z" fill="url(#paint1_linear_1256_2189)"/>
<path d="M45.7658 24.5926C44.7775 24.0535 43.31 22.7657 42.2319 21.6876C40.7045 20.25 40.1355 19.2318 39.866 18.6029C39.7761 18.4232 39.4168 17.7045 39.2371 16.6862C38.3386 12.8828 39.7761 9.43865 39.7761 9.43865C39.9558 8.89958 41.2137 5.99458 44.2983 3.98804C46.0354 2.90991 47.6526 2.46068 48.1916 2.37084C51.9951 1.56223 54.7545 2.78477 55.5631 3.14415C56.3718 3.50353 59.0629 5.00629 60.6801 7.70164C60.8598 7.97118 64.0344 13.4218 61.4887 18.7526C58.464 25.3114 49.6891 26.689 45.7658 24.5926Z" fill="url(#paint2_linear_1256_2189)"/>
<path d="M69.0101 5.06152L65.6858 13.3572H63.9488L60.6245 5.06152H62.1818C62.3615 5.06152 62.4813 5.09147 62.5712 5.18132C62.661 5.27116 62.7509 5.36101 62.8107 5.4808L64.428 9.91317C64.5178 10.0929 64.5777 10.3324 64.6376 10.5421C64.6975 10.7817 64.7873 11.0213 64.8472 11.2608C64.9071 11.0213 64.967 10.7817 65.0269 10.5421C65.0868 10.3025 65.1767 10.0929 65.2366 9.91317L66.8238 5.4808C66.8538 5.36101 66.9436 5.27116 67.0634 5.18132C67.1832 5.09147 67.303 5.06152 67.4528 5.06152H69.0101Z" fill="black"/>
<path d="M71.6156 13.3572H69.6689V5.06152H71.6156V13.3572Z" fill="black"/>
<path d="M76.1376 5.06152C76.7366 5.06152 77.2157 5.12142 77.635 5.27116C78.0543 5.4209 78.4137 5.6006 78.6832 5.84018C78.9527 6.07977 79.1624 6.37925 79.2822 6.70869C79.402 7.03812 79.4619 7.3975 79.4619 7.78683C79.4619 8.20611 79.402 8.56549 79.2522 8.92487C79.1025 9.28425 78.9228 9.55379 78.6533 9.82332C78.3837 10.0629 78.0243 10.2726 77.6051 10.3923C77.1858 10.5121 76.6767 10.602 76.1076 10.602H75.1193V13.3872H73.2026V5.06152H76.1376ZM76.1376 9.13451C76.6467 9.13451 77.0061 9.01472 77.2157 8.77513C77.4254 8.53554 77.5452 8.20611 77.5452 7.78683C77.5452 7.60714 77.5152 7.42745 77.4553 7.27771C77.3954 7.12796 77.3056 6.97822 77.1858 6.88838C77.066 6.76858 76.9162 6.67874 76.7366 6.61884C76.5569 6.55894 76.3472 6.529 76.1076 6.529H75.1193V9.16446H76.1376V9.13451Z" fill="black"/>
<path d="M65.5658 22.821H68.5008V26.325C68.0815 26.6245 67.6323 26.8641 67.1531 27.0138C66.6739 27.1636 66.1648 27.2235 65.6557 27.2235C64.9669 27.2235 64.3379 27.1037 63.7989 26.894C63.2299 26.6844 62.7507 26.3849 62.3613 25.9956C61.972 25.6062 61.6426 25.157 61.433 24.6479C61.2233 24.1388 61.1035 23.5697 61.1035 22.9708C61.1035 22.3419 61.1934 21.7728 61.403 21.2637C61.6126 20.7546 61.9121 20.3054 62.2715 19.916C62.6608 19.5267 63.1101 19.2572 63.6491 19.0475C64.1882 18.8379 64.7872 18.748 65.476 18.748C65.8354 18.748 66.1349 18.778 66.4343 18.8379C66.7338 18.8978 67.0034 18.9876 67.2729 19.0775C67.5424 19.1673 67.7521 19.2871 67.9617 19.4369C68.1713 19.5866 68.351 19.7363 68.5307 19.8861L67.9617 20.7246C67.8719 20.8444 67.7521 20.9343 67.6323 20.9642C67.4825 20.9942 67.3328 20.9642 67.183 20.8744C67.0333 20.7845 66.8836 20.6947 66.7638 20.6348C66.614 20.5749 66.4942 20.515 66.3445 20.4851C66.1947 20.4551 66.045 20.4252 65.8953 20.3952C65.7455 20.3653 65.5658 20.3653 65.3861 20.3653C65.0268 20.3653 64.6973 20.4252 64.4278 20.545C64.1283 20.6647 63.8887 20.8444 63.6791 21.084C63.4694 21.3236 63.3197 21.5931 63.1999 21.9226C63.0801 22.252 63.0202 22.6114 63.0202 23.0007C63.0202 23.45 63.0801 23.8393 63.1999 24.1687C63.3197 24.4981 63.4994 24.7976 63.709 25.0372C63.9187 25.2768 64.1882 25.4565 64.5176 25.5763C64.8171 25.6961 65.1765 25.756 65.5359 25.756C65.7755 25.756 65.9851 25.726 66.1648 25.6961C66.3445 25.6362 66.5242 25.5763 66.7039 25.5164V24.2586H65.8953C65.7755 24.2586 65.6856 24.2286 65.5958 24.1687C65.5359 24.1088 65.5059 24.019 65.5059 23.9291V22.821H65.5658Z" fill="black"/>
<path d="M74.7904 25.6062V27.1336H69.7891V18.8379H71.7058V25.6062H74.7904Z" fill="black"/>
<path d="M83.2055 27.1336H81.708C81.5284 27.1336 81.4086 27.1037 81.3187 27.0138C81.2289 26.924 81.139 26.8341 81.0791 26.7143L80.6 25.2768H77.4554L76.9762 26.7143C76.9462 26.8341 76.8564 26.924 76.7366 27.0138C76.6168 27.1037 76.497 27.1336 76.3473 27.1336H74.8499L78.0543 18.8379H80.0309L83.2055 27.1336ZM80.1507 23.9591L79.3721 21.683C79.3122 21.5333 79.2523 21.3835 79.1924 21.1739C79.1325 20.9642 79.0726 20.7546 79.0127 20.545C78.9528 20.7845 78.8929 20.9942 78.833 21.1739C78.7731 21.3835 78.7132 21.5333 78.6533 21.683L77.8746 23.9591H80.1507Z" fill="black"/>
<path d="M88.4466 20.5144C88.3867 20.6042 88.3268 20.6641 88.2669 20.724C88.207 20.7839 88.1172 20.7839 88.0273 20.7839C87.9375 20.7839 87.8477 20.7539 87.7578 20.694C87.668 20.6341 87.5482 20.5742 87.4284 20.5144C87.3086 20.4545 87.1588 20.3946 86.9792 20.3347C86.8294 20.2748 86.6198 20.2448 86.4101 20.2448C86.0508 20.2448 85.7812 20.3347 85.6015 20.4844C85.4218 20.6341 85.332 20.8438 85.332 21.1133C85.332 21.293 85.3919 21.4128 85.4817 21.5326C85.6015 21.6524 85.7213 21.7422 85.901 21.8021C86.0807 21.892 86.2604 21.9519 86.5 22.0118C86.7096 22.0717 86.9492 22.1615 87.1888 22.2214C87.4284 22.3112 87.638 22.4011 87.8776 22.5209C88.0872 22.6407 88.2969 22.7605 88.4766 22.9401C88.6563 23.1198 88.7761 23.3295 88.8958 23.5691C89.0156 23.8087 89.0456 24.1081 89.0456 24.4675C89.0456 24.8568 88.9857 25.2163 88.836 25.5457C88.7162 25.8751 88.5065 26.1746 88.2669 26.4142C88.0274 26.6538 87.6979 26.8634 87.3385 27.0131C86.9792 27.1629 86.5599 27.2228 86.0807 27.2228C85.8112 27.2228 85.5716 27.1928 85.302 27.1329C85.0325 27.073 84.763 27.0132 84.5234 26.8934C84.2838 26.8035 84.0442 26.6837 83.8046 26.5639C83.595 26.4441 83.3853 26.2944 83.2356 26.1147L83.8046 25.2162C83.8645 25.1563 83.9244 25.0964 83.9843 25.0665C84.0442 25.0365 84.1341 25.0066 84.2239 25.0066C84.3437 25.0066 84.4635 25.0366 84.5533 25.1264C84.6731 25.1863 84.7929 25.2761 84.9427 25.366C85.0924 25.4558 85.2421 25.5457 85.4518 25.6056C85.6315 25.6655 85.8711 25.7254 86.1106 25.7254C86.47 25.7254 86.7396 25.6355 86.9193 25.4858C87.0989 25.336 87.2187 25.0964 87.2187 24.767C87.2187 24.5873 87.1588 24.4076 87.069 24.2878C86.9492 24.168 86.8294 24.0782 86.6497 23.9883C86.47 23.8985 86.2903 23.8386 86.0507 23.7787C85.8411 23.7188 85.6015 23.6589 85.3619 23.5691C85.1223 23.4792 84.9127 23.3894 84.6731 23.2996C84.4635 23.1798 84.2538 23.06 84.0742 22.8803C83.8945 22.7006 83.7747 22.4909 83.6549 22.2214C83.5351 21.9518 83.5051 21.6224 83.5051 21.2331C83.5051 20.9336 83.565 20.6042 83.6848 20.3347C83.8046 20.0651 83.9843 19.7656 84.2239 19.556C84.4635 19.3164 84.763 19.1367 85.1224 18.987C85.4817 18.8372 85.8711 18.7773 86.3203 18.7773C86.5599 18.7773 86.8294 18.8073 87.069 18.8372C87.3086 18.8672 87.5482 18.9271 87.7578 19.0169C87.9675 19.1068 88.1771 19.1966 88.3568 19.2865C88.5365 19.4063 88.7162 19.526 88.8659 19.6458L88.4466 20.5144Z" fill="black"/>
<path d="M94.7357 20.5144C94.6758 20.6042 94.6159 20.6641 94.556 20.724C94.4961 20.7839 94.4063 20.7839 94.3164 20.7839C94.2266 20.7839 94.1367 20.7539 94.0469 20.694C93.957 20.6341 93.8372 20.5742 93.7174 20.5144C93.5976 20.4545 93.4479 20.3946 93.2682 20.3347C93.1185 20.2748 92.9088 20.2448 92.6992 20.2448C92.3398 20.2448 92.0703 20.3347 91.8906 20.4844C91.7109 20.6341 91.621 20.8438 91.621 21.1133C91.621 21.293 91.6809 21.4128 91.7708 21.5326C91.8906 21.6524 92.0104 21.7422 92.1901 21.8021C92.3698 21.892 92.5494 21.9519 92.789 22.0118C92.9987 22.0717 93.2383 22.1615 93.4779 22.2214C93.7174 22.3112 93.9271 22.4011 94.1667 22.5209C94.3763 22.6407 94.5859 22.7605 94.7656 22.9401C94.9453 23.1198 95.0651 23.3295 95.1849 23.5691C95.3047 23.8087 95.3347 24.1081 95.3347 24.4675C95.3347 24.8568 95.2748 25.2163 95.125 25.5457C95.0052 25.8751 94.7956 26.1746 94.556 26.4142C94.3164 26.6538 93.987 26.8634 93.6276 27.0131C93.2682 27.1629 92.8489 27.2228 92.3698 27.2228C92.1002 27.2228 91.8606 27.1928 91.5911 27.1329C91.3216 27.073 91.052 27.0132 90.8124 26.8934C90.5729 26.8035 90.3333 26.6837 90.0937 26.5639C89.884 26.4441 89.6744 26.2944 89.5247 26.1147L90.0937 25.2162C90.1536 25.1563 90.2135 25.0964 90.2734 25.0665C90.3333 25.0365 90.4231 25.0066 90.513 25.0066C90.6328 25.0066 90.7525 25.0366 90.8424 25.1264C90.9622 25.1863 91.082 25.2761 91.2317 25.366C91.3815 25.4558 91.5312 25.5457 91.7408 25.6056C91.9205 25.6655 92.1601 25.7254 92.3997 25.7254C92.7591 25.7254 93.0286 25.6355 93.2083 25.4858C93.388 25.336 93.5078 25.0964 93.5078 24.767C93.5078 24.5873 93.4479 24.4076 93.3581 24.2878C93.2383 24.168 93.1185 24.0782 92.9388 23.9883C92.7591 23.8985 92.5794 23.8386 92.3398 23.7787C92.1302 23.7188 91.8906 23.6589 91.651 23.5691C91.4114 23.4792 91.2018 23.3894 90.9622 23.2996C90.7525 23.1798 90.5429 23.06 90.3632 22.8803C90.1835 22.7006 90.0637 22.4909 89.9439 22.2214C89.8241 21.9518 89.7942 21.6224 89.7942 21.2331C89.7942 20.9336 89.8541 20.6042 89.9739 20.3347C90.0937 20.0651 90.2734 19.7656 90.513 19.556C90.7525 19.3164 91.052 19.1367 91.4114 18.987C91.7708 18.8372 92.1601 18.7773 92.6094 18.7773C92.8489 18.7773 93.1185 18.8073 93.3581 18.8372C93.5977 18.8672 93.8372 18.9271 94.0469 19.0169C94.2565 19.1068 94.4662 19.1966 94.6458 19.2865C94.8255 19.4063 95.0052 19.526 95.155 19.6458L94.7357 20.5144Z" fill="black"/>
<path d="M98.4194 20.3054V22.252H101.025V23.6895H98.4194V25.6661H101.834V27.1336H96.5027V18.8379H101.834V20.3054H98.4194Z" fill="black"/>
<path d="M107.584 20.5144C107.524 20.6042 107.464 20.6641 107.404 20.724C107.344 20.7839 107.254 20.7839 107.165 20.7839C107.075 20.7839 106.985 20.7539 106.895 20.694C106.805 20.6341 106.685 20.5742 106.566 20.5144C106.446 20.4545 106.296 20.3946 106.116 20.3347C105.967 20.2748 105.757 20.2448 105.547 20.2448C105.188 20.2448 104.918 20.3347 104.739 20.4844C104.559 20.6341 104.469 20.8438 104.469 21.1133C104.469 21.293 104.529 21.4128 104.619 21.5326C104.739 21.6524 104.859 21.7422 105.038 21.8021C105.218 21.892 105.398 21.9519 105.637 22.0118C105.847 22.0717 106.086 22.1615 106.326 22.2214C106.566 22.3112 106.775 22.4011 107.015 22.5209C107.224 22.6407 107.434 22.7605 107.614 22.9401C107.793 23.1198 107.913 23.3295 108.033 23.5691C108.153 23.8087 108.183 24.1081 108.183 24.4675C108.183 24.8568 108.123 25.2163 107.973 25.5457C107.853 25.8751 107.644 26.1746 107.404 26.4142C107.165 26.6538 106.835 26.8634 106.476 27.0131C106.116 27.1629 105.697 27.2228 105.218 27.2228C104.948 27.2228 104.709 27.1928 104.439 27.1329C104.17 27.073 103.9 27.0132 103.661 26.8934C103.421 26.8035 103.181 26.6837 102.942 26.5639C102.732 26.4441 102.523 26.2944 102.373 26.1147L102.942 25.2162C103.002 25.1563 103.062 25.0964 103.122 25.0665C103.181 25.0365 103.271 25.0066 103.361 25.0066C103.481 25.0066 103.601 25.0366 103.691 25.1264C103.81 25.1863 103.93 25.2761 104.08 25.366C104.23 25.4558 104.379 25.5457 104.589 25.6056C104.769 25.6655 105.008 25.7254 105.248 25.7254C105.607 25.7254 105.877 25.6355 106.056 25.4858C106.236 25.336 106.356 25.0964 106.356 24.767C106.356 24.5873 106.296 24.4076 106.206 24.2878C106.086 24.168 105.967 24.0782 105.787 23.9883C105.607 23.8985 105.428 23.8386 105.188 23.7787C104.978 23.7188 104.739 23.6589 104.499 23.5691C104.26 23.4792 104.05 23.3894 103.81 23.2996C103.601 23.1798 103.391 23.06 103.211 22.8803C103.032 22.7006 102.912 22.4909 102.792 22.2214C102.672 21.9518 102.642 21.6224 102.642 21.2331C102.642 20.9336 102.702 20.6042 102.822 20.3347C102.942 20.0651 103.122 19.7656 103.361 19.556C103.601 19.3164 103.9 19.1367 104.26 18.987C104.619 18.8372 105.008 18.7773 105.457 18.7773C105.697 18.7773 105.967 18.8073 106.206 18.8372C106.446 18.8672 106.685 18.9271 106.895 19.0169C107.105 19.1068 107.314 19.1966 107.494 19.2865C107.674 19.4063 107.853 19.526 108.003 19.6458L107.584 20.5144Z" fill="black"/>
<defs>
<linearGradient id="paint0_linear_1256_2189" x1="17.1443" y1="-4.70925" x2="49.4062" y2="30.0569" gradientUnits="userSpaceOnUse">
<stop/>
<stop offset="1" stop-opacity="0"/>
</linearGradient>
<linearGradient id="paint1_linear_1256_2189" x1="12.5793" y1="7.63535" x2="26.557" y2="27.7612" gradientUnits="userSpaceOnUse">
<stop stop-color="#383838"/>
<stop offset="0.1811" stop-color="#505050" stop-opacity="0.8189"/>
<stop offset="0.5633" stop-color="#8D8D8D" stop-opacity="0.4367"/>
<stop offset="1" stop-color="#D9D9D9" stop-opacity="0"/>
</linearGradient>
<linearGradient id="paint2_linear_1256_2189" x1="43.8081" y1="4.65811" x2="57.6634" y2="24.6077" gradientUnits="userSpaceOnUse">
<stop stop-color="#383838"/>
<stop offset="0.6486" stop-color="#D9D9D9" stop-opacity="0"/>
</linearGradient>
</defs>
</svg>
