<svg width="23" height="18" viewBox="0 0 23 18" fill="none" xmlns="http://www.w3.org/2000/svg">
<path d="M21.3434 3.19334L1.66478 3.19334C1.30268 3.19334 1.00898 2.70198 1.00914 2.09667C1.00931 1.49127 1.30333 1 1.66538 1L21.344 1C21.7061 1 21.9998 1.49136 21.9996 2.09667C21.9994 2.70198 21.7054 3.19334 21.3434 3.19334Z" fill="black" stroke="white" stroke-width="0.2"/>
<path d="M1.66315 8.19336L21.3417 8.19336C21.7038 8.19336 21.9975 8.68472 21.9974 9.29002C21.9972 9.89533 21.7032 10.3867 21.3412 10.3867L1.66256 10.3867C1.30046 10.3867 1.00676 9.89533 1.00692 9.29002C1.00708 8.68472 1.30105 8.19336 1.66315 8.19336Z" fill="black" stroke="white" stroke-width="0.2"/>
<path d="M1.66091 15.3867L21.3395 15.3867C21.7016 15.3867 21.9953 15.8781 21.9951 16.4834C21.995 17.0887 21.701 17.58 21.3389 17.58L1.66032 17.58C1.29822 17.58 1.00451 17.0887 1.00468 16.4834C1.00484 15.8781 1.29881 15.3867 1.66091 15.3867Z" fill="black" stroke="white" stroke-width="0.2"/>
</svg>
