<svg width="40" height="40" viewBox="0 0 40 40" fill="none" xmlns="http://www.w3.org/2000/svg">
<path d="M20.0007 26.6673C23.6825 26.6673 26.6673 23.6825 26.6673 20.0007C26.6673 16.3188 23.6825 13.334 20.0007 13.334C16.3188 13.334 13.334 16.3188 13.334 20.0007C13.334 23.6825 16.3188 26.6673 20.0007 26.6673Z" stroke="black" stroke-width="2" stroke-linecap="round" stroke-linejoin="round"/>
<path d="M5 26.6667V13.3333C5 8.73097 8.73097 5 13.3333 5H26.6667C31.269 5 35 8.73097 35 13.3333V26.6667C35 31.269 31.269 35 26.6667 35H13.3333C8.73097 35 5 31.269 5 26.6667Z" stroke="black" stroke-width="2"/>
<path d="M29.168 10.8509L29.1849 10.832" stroke="black" stroke-width="2" stroke-linecap="round" stroke-linejoin="round"/>
</svg>
